<?xml version="1.0" encoding="UTF-8" standalone="no"?>
<!-- Created with Inkscape (http://www.inkscape.org/) -->

<svg
   width="62.861794mm"
   height="62.861794mm"
   viewBox="0 0 62.861794 62.861793"
   version="1.1"
   id="svg1"
   xml:space="preserve"
   sodipodi:docname="company-logo.svg"
   inkscape:version="1.3.2 (091e20e, 2023-11-25, custom)"
   xmlns:inkscape="http://www.inkscape.org/namespaces/inkscape"
   xmlns:sodipodi="http://sodipodi.sourceforge.net/DTD/sodipodi-0.dtd"
   xmlns="http://www.w3.org/2000/svg"
   xmlns:svg="http://www.w3.org/2000/svg"><sodipodi:namedview
     id="namedview1"
     pagecolor="#ffffff"
     bordercolor="#666666"
     borderopacity="1.0"
     inkscape:showpageshadow="2"
     inkscape:pageopacity="0.0"
     inkscape:pagecheckerboard="0"
     inkscape:deskcolor="#d1d1d1"
     inkscape:document-units="mm"
     inkscape:zoom="1.0606602"
     inkscape:cx="99.937758"
     inkscape:cy="194.21866"
     inkscape:window-width="1920"
     inkscape:window-height="991"
     inkscape:window-x="-9"
     inkscape:window-y="-9"
     inkscape:window-maximized="1"
     inkscape:current-layer="layer1" /><defs
     id="defs1" /><g
     inkscape:label="Layer 1"
     inkscape:groupmode="layer"
     id="layer1"
     transform="translate(-65.092745,-136.58178)"><g
       id="g1"
       transform="translate(-2.7439671,-1.4967093)"><circle
         style="fill:#35363a;fill-opacity:1;stroke-width:1.40782;stroke-linecap:square;stroke-miterlimit:3.5;paint-order:fill markers stroke"
         id="path1"
         cx="99.267609"
         cy="169.50938"
         r="31.430897" /><g
         id="g13"
         transform="matrix(0.4956627,0,0,0.4956627,29.242261,109.55428)"
         style="fill:#efc064;fill-opacity:1"
         inkscape:export-filename="g13.svg"
         inkscape:export-xdpi="96"
         inkscape:export-ydpi="96"><path
           id="circle3"
           style="color:#000000;fill:#efc064;fill-opacity:1;stroke-width:1.82513;stroke-linecap:round;stroke-linejoin:round;stroke-miterlimit:0;-inkscape-stroke:none;paint-order:fill markers stroke"
           d="m 142.00622,72.083972 c -25.75337,0 -46.916796,20.047225 -48.734049,45.347158 h 2.261697 6.517242 12.64967 1.83822 c 1.70996,-12.56648 12.41433,-22.182195 25.46722,-22.182195 7.35095,0 13.95417,3.054004 18.63025,7.962165 l 6.07866,-6.237124 c -6.2709,-6.458699 -15.03231,-10.487 -24.70891,-10.487 -15.2946,0 -28.30973,10.054047 -32.79653,23.887424 h -5.89946 c 4.62764,-17.043253 20.1575,-29.528468 38.69599,-29.528468 17.87195,0 32.95142,11.602445 38.16026,27.706278 h 9.11377 C 183.77218,87.596432 164.66168,72.083972 142.00622,72.083972 Z M 93.272171,124.48785 c 1.817253,25.29993 22.980679,45.34716 48.734049,45.34716 22.65579,0 41.76627,-15.51391 47.27403,-36.47012 h -9.11377 c -5.20833,16.10472 -20.28767,27.70816 -38.16026,27.70816 -18.53849,0 -34.06835,-12.4852 -38.69599,-29.52847 h 5.89758 c 4.48598,13.83398 17.50267,23.88742 32.79841,23.88742 10.01657,0 19.05582,-4.31286 25.36347,-11.17268 l -6.23901,-6.07489 c -4.69846,5.21758 -11.51252,8.48844 -19.12446,8.48844 -13.05421,0 -23.75985,-9.61681 -25.46817,-22.18502 h -1.67693 -7.1501 -5.65991 -6.355961 z" /><g
           id="g12"
           transform="matrix(1.8251269,0,0,1.8251269,-65.449959,-25.841556)"
           style="fill:#efc064;fill-opacity:1"><circle
             style="fill:#efc064;fill-opacity:1;stroke:none;stroke-width:1;stroke-linecap:square;stroke-linejoin:miter;stroke-miterlimit:3.5;stroke-dasharray:none;paint-order:fill markers stroke"
             id="path11"
             cx="137.44815"
             cy="80.433334"
             r="2.1203382" /><circle
             style="fill:#efc064;fill-opacity:1;stroke:none;stroke-width:1;stroke-linecap:square;stroke-linejoin:miter;stroke-miterlimit:3.5;stroke-dasharray:none;paint-order:fill markers stroke"
             id="path12"
             cx="136.56909"
             cy="85.107643"
             r="0.79374999" /><circle
             style="fill:#efc064;fill-opacity:1;stroke:none;stroke-width:1;stroke-linecap:square;stroke-linejoin:miter;stroke-miterlimit:3.5;stroke-dasharray:none;paint-order:fill markers stroke"
             id="circle12"
             cx="136.56909"
             cy="75.759033"
             r="0.79374999" /></g></g></g></g></svg>
